<svg width="256" height="63" viewBox="0 0 256 63" fill="none" xmlns="http://www.w3.org/2000/svg">
<rect width="256" height="63" fill="#F5F5F5"/>
<path d="M9.3 58.6C9.3 59.8 8.3 60.8 7.1 60.8H2.2C1 60.8 0 59.8 0 58.6V16.4C0 15.2 1 14.2 2.2 14.2H7.1C8.3 14.2 9.3 15.2 9.3 16.4V58.6Z" fill="#002A6F"/>
<path d="M99 25.4C99 18.9 93.7 12.4 85.3 12.4C81.4 12.4 79.1 13.6 78.3 14.4V2.2C78.3 0.999999 77.3 0 76.1 0H71.3C70.1 0 69.1 0.999999 69.1 2.2V48.4C69.1 58.2 78.4 62.4 84.1 62.4C89.4 62.4 99.1 58.4 99.1 48.4V25.4H99ZM89.7 48.1C89.7 51.2 87.2 53.8 84 53.8C80.9 53.8 78.3 51.3 78.3 48.1V26.7C78.3 23.6 80.8 21 84 21C87.1 21 89.7 23.5 89.7 26.7V48.1Z" fill="#002A6F"/>
<path d="M41.1 14.2C42.5 14.2 43.6 15 44 16.7L49.6 45.3H49.8L55.8 16.6C56.2 14.5 57.6 14.2 58.1 14.2H63.3C64.7 14.2 65.7 15.4 65.5 16.9L57.2 55.8C55.5 61.8 50.7 61.5 50.6 61.5C49 61.5 45.2 60.7 44.1 55.3L39.2 31H39L34.1 55.3C33 60.7 29.3 61.5 27.6 61.5C27.5 61.5 22.6 61.8 21 55.8L12.7 16.9C12.5 15.4 13.5 14.2 14.9 14.2H20.1C20.6 14.2 22 14.5 22.4 16.6L28.4 45.3H28.6L34.3 16.6C34.6 14.9 35.8 14.1 37.2 14.1H41.1V14.2Z" fill="#002A6F"/>
<path d="M248.7 59.7001V51.5C250 50.1 251 49.4 252.3 49.4C254.1 49.4 254.8 50.5 254.8 52.8V59.7001H255.7V52.7001C255.7 49.9001 254.7 48.5 252.4 48.5C250.9 48.5 249.8 49.4 248.6 50.5V43.3H247.7V59.7001H248.7ZM241.6 60C243 60 244.2 59.4 245.1 58.5L244.6 57.9C243.9 58.6 242.8 59.1001 241.7 59.1001C239.3 59.1001 237.7 57.2001 237.7 54.2001C237.7 51.3 239.4 49.3 241.7 49.3C242.8 49.3 243.7 49.8 244.4 50.4L244.9 49.8C244.2 49.1 243.2 48.4 241.7 48.4C239.1 48.4 236.8 50.5001 236.8 54.1001C236.7 57.9001 238.8 60 241.6 60ZM232.9 46.2001C233.4 46.2001 233.7 45.8 233.7 45.3C233.7 44.8 233.3 44.4 232.9 44.4C232.5 44.4 232.1 44.8 232.1 45.3C232.1 45.8 232.5 46.2001 232.9 46.2001ZM232.5 59.7001H233.4V48.9H232.5V59.7001ZM228.4 60C228.7 60 228.9 60 229.1 59.8L228.9 59.1001C228.7 59.1001 228.6 59.1001 228.5 59.1001C228.2 59.1001 228 58.9 228 58.4V43.4H227.1V58.3C227.1 59.5 227.6 60 228.4 60ZM218.5 59.2001C216.2 59.2001 214.9 57.3 214.9 54.3C214.9 51.6 216.6 49.4 218.8 49.4C219.9 49.4 220.9 49.8 222 50.8V57.3C220.8 58.5 219.7 59.2001 218.5 59.2001ZM218.4 60C219.9 60 221.1 59.2001 222 58.3H222.1L222.2 59.7001H223V43.4H222.1V49.9C221 49 220.1 48.5 218.8 48.5C216.2 48.5 214 50.7001 214 54.2001C213.9 58 215.7 60 218.4 60ZM202.8 59.7001H203.7V51.5C205 50.1 206 49.4 207.3 49.4C209.1 49.4 209.8 50.5 209.8 52.8V59.7001H210.7V52.7001C210.7 49.9001 209.7 48.5 207.4 48.5C205.9 48.5 204.8 49.4 203.7 50.5L203.6 48.8H202.8V59.7001ZM193.9 60C195.4 60 196.5 59.2 197.6 57.9L197.7 59.7001H198.5V48.9H197.6V56.9C196.3 58.5 195.4 59.2001 194 59.2001C192.2 59.2001 191.5 58.1 191.5 55.8V48.9H190.6V55.9C190.7 58.7 191.7 60 193.9 60ZM180 53.6001C180.2 51.0001 181.9 49.4 183.8 49.4C185.8 49.4 187.1 50.8001 187.1 53.6001H180ZM184 60C185.6 60 186.6 59.5 187.4 58.9L187 58.3C186.2 58.8 185.3 59.2001 184.1 59.2001C181.6 59.2001 180 57.2 180 54.4H187.9C187.9 54.1 187.9 53.9001 187.9 53.6001C187.9 50.4001 186.3 48.6001 183.8 48.6001C181.4 48.6001 179.1 50.8 179.1 54.3C179 57.9 181.2 60 184 60ZM173.9 59.7001V52.3C174.7 50.2001 175.9 49.5 176.9 49.5C177.3 49.5 177.5 49.5001 177.8 49.6001L178 48.8C177.7 48.6 177.3 48.6001 176.9 48.6001C175.6 48.6001 174.5 49.6 173.8 50.9L173.7 48.9H172.9V59.7001H173.9ZM168.1 59.7001V49.7001H170.6V48.9H168.1V46.5C168.1 44.9 168.6 44 169.8 44C170.2 44 170.6 44.1 171.1 44.3L171.4 43.6001C170.9 43.4001 170.3 43.2001 169.8 43.2001C168.1 43.2001 167.1 44.3 167.1 46.4V48.9L165.6 49V49.7001H167.1V59.7001H168.1ZM158.5 59.2001C157.2 59.2001 156.1 58.6 156.1 57C156.1 55.2 157.6 54.2001 162.2 53.7001V57.5C160.9 58.6 159.8 59.2001 158.5 59.2001ZM158.4 60C159.8 60 161.2 59.2001 162.3 58.3L162.4 59.7001H163.2V52.7001C163.2 50.4001 162.3 48.5 159.8 48.5C158 48.5 156.5 49.3 155.8 49.9L156.2 50.6001C156.9 50.1001 158.2 49.4 159.7 49.4C161.9 49.4 162.3 51.2 162.3 52.9C157.4 53.4 155.2 54.6 155.2 57C155.2 59.1 156.7 60 158.4 60ZM137.6 59.7001H138.5V51.5C139.7 50.1 140.8 49.4 141.8 49.4C143.5 49.4 144.3 50.5 144.3 52.8V59.7001H145.2V51.5C146.4 50.1 147.5 49.4 148.5 49.4C150.2 49.4 151 50.5 151 52.8V59.7001H151.9V52.7001C151.9 49.9001 150.8 48.5 148.7 48.5C147.5 48.5 146.3 49.4001 145 50.7001C144.6 49.3 143.8 48.5 142 48.5C140.8 48.5 139.5 49.4 138.6 50.5L138.5 48.8H137.6V59.7001ZM132.9 46.2001C133.4 46.2001 133.7 45.8 133.7 45.3C133.7 44.8 133.3 44.4 132.9 44.4C132.5 44.4 132.1 44.8 132.1 45.3C132.1 45.8 132.5 46.2001 132.9 46.2001ZM132.5 59.7001H133.4V48.9H132.5V59.7001ZM128.4 60C128.7 60 128.9 60 129.1 59.8L128.9 59.1001C128.7 59.1001 128.6 59.1001 128.5 59.1001C128.2 59.1001 128 58.9 128 58.4V43.4H127.1V58.3C127.1 59.5 127.6 60 128.4 60ZM116.7 59.7001H117.6V56.7001L120.1 53.8L123.7 59.7001H124.7L120.6 53.1001L124.1 48.8H123L117.6 55.5V43.4H116.7V59.7001Z" fill="#009EE0"/>
<path d="M235.1 35.5C237.4 35.5 238.7 34.1 238.7 32.4C238.7 30.3 236.8 29.7 235.1 29.1C233.8 28.6 232.6 28.1 232.6 26.9C232.6 25.9 233.4 24.9 235.1 24.9C236.2 24.9 237 25.3 237.7 25.8L238.2 25.2001C237.4 24.5 236.3 24.1 235.1 24.1C232.8 24.1 231.6 25.4 231.6 27C231.6 28.9 233.3 29.5 235 30.1C236.3 30.6 237.7 31.2001 237.7 32.5C237.7 33.7001 236.8 34.7001 235 34.7001C233.4 34.7001 232.4 34.2 231.5 33.4L231 34C232.1 34.9001 233.4 35.5 235.1 35.5ZM223.7 35.5C225.2 35.5 226.3 34.7 227.4 33.4L227.5 35.2001H228.3V24.4H227.4V32.4C226.1 34 225.2 34.7001 223.8 34.7001C222 34.7001 221.3 33.6 221.3 31.3V24.4H220.4V31.4C220.4 34.2 221.4 35.5 223.7 35.5ZM212 34.7001C210.7 34.7001 209.6 34.1 209.6 32.5C209.6 30.7001 211.1 29.7001 215.7 29.2001V33C214.3 34.1 213.2 34.7001 212 34.7001ZM211.8 35.5C213.2 35.5 214.6 34.7001 215.7 33.8L215.8 35.2001H216.6V28.2001C216.6 25.9001 215.7 24 213.2 24C211.4 24 209.9 24.8 209.2 25.4L209.6 26.1C210.3 25.6 211.6 24.9 213.1 24.9C215.3 24.9 215.7 26.7 215.7 28.4C210.8 28.9 208.6 30.1 208.6 32.5C208.7 34.6 210.1 35.5 211.8 35.5ZM198.7 35.3V27.8C199.5 25.7 200.7 25 201.7 25C202.1 25 202.3 25 202.6 25.1L202.8 24.3C202.5 24.1 202.1 24.1 201.7 24.1C200.4 24.1 199.3 25.1 198.6 26.4L198.5 24.4H197.7V35.3H198.7ZM188.9 35.5C190.4 35.5 191.5 34.7 192.6 33.4L192.7 35.2001H193.5V24.4H192.6V32.4C191.3 34 190.4 34.7001 189 34.7001C187.2 34.7001 186.5 33.6 186.5 31.3V24.4H185.6V31.4C185.6 34.2 186.7 35.5 188.9 35.5ZM181.7 35.5C182.2 35.5 182.9 35.3 183.5 35L183.2 34.3C182.7 34.5 182.2 34.6 181.8 34.6C180.3 34.6 179.9 33.6001 179.9 32.2001V25.1H183.1V24.3H179.9V20.8H179.1L179 24.4L177.3 24.5V25.2001H179V32.3C179 34.2001 179.6 35.5 181.7 35.5ZM170.4 34.7001C169.1 34.7001 168 34.1 168 32.5C168 30.7001 169.5 29.7001 174.1 29.2001V33C172.8 34.1 171.7 34.7001 170.4 34.7001ZM170.3 35.5C171.7 35.5 173.1 34.7001 174.2 33.8L174.3 35.2001H175.1V28.2001C175.1 25.9001 174.2 24 171.7 24C169.9 24 168.4 24.8 167.7 25.4L168.1 26.1C168.8 25.6 170.1 24.9 171.6 24.9C173.8 24.9 174.2 26.7 174.2 28.4C169.3 28.9 167.1 30.1 167.1 32.5C167.1 34.6 168.6 35.5 170.3 35.5ZM155.9 35.3H156.8V27.1C158.1 25.7 159.1 25 160.4 25C162.2 25 162.9 26.1 162.9 28.4V35.3H163.8V28.3C163.8 25.5 162.8 24.1 160.5 24.1C159 24.1 157.9 25 156.8 26.1L156.7 24.4H155.9V35.3ZM139.4 35.3H140.3V27.1C141.6 25.7 142.6 25 143.9 25C145.7 25 146.4 26.1 146.4 28.4V35.3H147.3V28.3C147.3 25.5 146.3 24.1 144 24.1C142.5 24.1 141.4 25 140.3 26.1L140.2 24.4H139.4V35.3ZM131.2 34.7001C129 34.7001 127.3 32.7001 127.3 29.8C127.3 26.9 129 24.9 131.2 24.9C133.4 24.9 135.1 26.9 135.1 29.8C135.1 32.7001 133.4 34.7001 131.2 34.7001ZM131.2 35.5C133.8 35.5 136.1 33.4 136.1 29.8C136.1 26.2 133.8 24.1 131.2 24.1C128.6 24.1 126.3 26.2 126.3 29.8C126.3 33.4 128.6 35.5 131.2 35.5ZM119.7 35.3H120.8L124.8 24.4H123.8L121.3 31.3C120.9 32.3 120.6 33.5 120.2 34.4H120.1C119.7 33.4 119.4 32.3 119 31.3L116.5 24.4H115.5L119.7 35.3Z" fill="#009EE0"/>
</svg>
