<svg width="283" height="74" viewBox="0 0 283 74" fill="none" xmlns="http://www.w3.org/2000/svg">
<path d="M0 8.87988H6.15L12.45 30.0599H12.71L19.14 8.95988H25.14C21.79 18.9599 18.47 28.8399 15.14 38.7599H9.8C9.1 36.6099 8.4 34.4899 7.71 32.3699C5.28333 24.8899 2.84667 17.4132 0.400002 9.93988C0.285046 9.6515 0.151428 9.3709 0 9.09988V8.87988Z" fill="#676867"/>
<path d="M81.6697 38.78H76.2797L64.5197 19.65C64.1697 20.65 64.2697 26.45 64.3997 29.21C64.5497 32.35 64.3997 35.51 64.3997 38.74H58.9297V8.98999H64.2897C68.1697 15.43 72.0664 21.9167 75.9797 28.45C76.5197 26.28 76.1297 24.16 76.1597 22.05C76.1897 19.94 76.1597 17.74 76.1597 15.58C76.1597 13.42 76.1597 11.26 76.1597 9.01999H81.7197L81.6697 38.78Z" fill="#676867"/>
<path d="M162.67 26.6499C164.83 30.6999 166.95 34.6499 169.13 38.7399H162.61L156.51 27.2099H152.9V38.7999C151.9 38.7999 151 38.7999 150.1 38.7999C149.2 38.7999 148.27 38.7999 147.37 38.7999C147.09 37.8899 146.98 11.5999 147.23 8.97987C147.528 8.93745 147.829 8.91075 148.13 8.89987H159.13C160.454 8.8844 161.768 9.12551 163 9.60987C164.086 10.036 165.048 10.7266 165.799 11.619C166.549 12.5114 167.066 13.5773 167.3 14.7199C167.9 16.9265 167.9 19.2533 167.3 21.4599C167.06 22.5378 166.565 23.5425 165.857 24.3898C165.149 25.2371 164.248 25.9024 163.23 26.3299C163.038 26.4267 162.851 26.5335 162.67 26.6499ZM153.01 13.9199C152.759 16.7142 152.759 19.5255 153.01 22.3199C155.06 22.3199 157.13 22.4099 159.2 22.3199C159.851 22.3071 160.479 22.0689 160.974 21.646C161.47 21.223 161.804 20.6413 161.92 19.9999C162.138 19.0155 162.192 18.0019 162.08 16.9999C161.82 14.9999 160.9 14.0599 158.89 13.9199C156.88 13.7799 155.02 13.9199 153.01 13.9199Z" fill="#676867"/>
<path d="M121.61 73.1099L112.01 60.1899C111.16 61.3499 110.36 62.3799 109.65 63.4699C109.479 63.824 109.409 64.2187 109.45 64.6099C109.45 67.0099 109.45 69.4099 109.45 71.8099V73.1599H103.58C103.49 63.2599 103.64 53.4199 103.58 43.4099H109.43C109.58 47.7799 109.33 52.1099 109.67 56.5099L120.29 43.5099H127.29L116.18 56.8199L128.61 73.1099H121.61Z" fill="#DE3840"/>
<path d="M178.61 56.55L189.23 43.5H196.23L185.19 56.83L197.61 73.1H190.61L181.04 60.22C180.48 60.95 180.04 61.65 179.49 62.22C179.063 62.676 178.739 63.2179 178.539 63.8095C178.339 64.4011 178.268 65.0286 178.33 65.65C178.42 67.73 178.33 69.81 178.33 71.89C178.33 72.28 178.33 72.67 178.27 73.13H172.61V43.52H178.3C178.51 47.83 178.25 52.16 178.3 56.52L178.61 56.55Z" fill="#DE3840"/>
<path d="M31.6099 8.98999H50.4699V13.93H37.4699V20.65C38.6799 20.72 39.8999 20.65 41.1299 20.65H48.5899V25.65H37.4299V33.85C41.7599 33.85 46.0599 33.85 50.5199 33.85C50.5199 35.48 50.5199 37.06 50.5199 38.73H31.6099V8.98999Z" fill="#676867"/>
<path d="M115.97 8.97998H121.61V10.27C121.61 16.22 121.61 22.18 121.61 28.14C121.611 29.0179 121.709 29.8931 121.9 30.75C122.108 31.671 122.611 32.4988 123.334 33.1072C124.056 33.7156 124.957 34.0712 125.9 34.12C126.419 34.15 126.94 34.15 127.46 34.12C130.46 34.05 131.91 32.12 132.22 29.57C132.275 28.975 132.295 28.3773 132.28 27.78C132.28 21.98 132.28 16.18 132.28 10.38V9.01998H137.88C137.88 9.41998 137.94 9.80998 137.94 10.2C137.94 16.2 137.94 22.2 137.94 28.2C137.959 29.722 137.722 31.2364 137.24 32.68C136.763 34.1876 135.9 35.5444 134.737 36.616C133.574 37.6877 132.151 38.4371 130.61 38.79C128.357 39.3696 125.997 39.4005 123.73 38.88C121.806 38.5288 120.042 37.5803 118.689 36.1693C117.335 34.7582 116.461 32.9564 116.19 31.02C116.003 29.9197 115.906 28.806 115.9 27.69C115.9 21.77 115.9 15.85 115.9 9.92998C115.91 9.64998 115.95 9.37998 115.97 8.97998Z" fill="#676867"/>
<path d="M182.46 20.7H193.61V25.7H182.67C182.338 28.4083 182.307 31.1451 182.58 33.86C183.96 33.92 185.39 33.86 186.81 33.86H195.52V38.76H176.77V9H195.53V13.94H182.53C182.34 16.25 182.4 18.38 182.46 20.7Z" fill="#676867"/>
<path d="M166.61 44.9698L164.73 49.5698C163.61 49.1398 162.61 48.6498 161.61 48.3598C159.82 47.763 157.896 47.697 156.07 48.1698C155.284 48.3449 154.562 48.7336 153.984 49.2929C153.405 49.8523 152.992 50.5606 152.79 51.3398C152.32 53.0354 152.101 54.7907 152.14 56.5498C152.14 58.7798 152.26 61.0198 152.35 63.2498C152.393 63.7236 152.48 64.1923 152.61 64.6498C152.786 65.7662 153.356 66.7829 154.216 67.5163C155.076 68.2498 156.17 68.6518 157.3 68.6498C159.901 68.9072 162.514 68.2953 164.73 66.9098L166.73 71.6098C166.344 71.8657 165.943 72.0994 165.53 72.3098C163.388 73.2605 161.074 73.7599 158.73 73.7771C156.387 73.7943 154.066 73.3289 151.91 72.4098C150.528 71.8509 149.319 70.937 148.404 69.7604C147.489 68.5839 146.901 67.1866 146.7 65.7098C146.414 64.2194 146.257 62.7072 146.23 61.1898C146.23 58.4798 146.31 55.7598 146.45 53.0498C146.539 51.4628 146.933 49.9078 147.61 48.4698C148.102 47.3679 148.819 46.3818 149.717 45.5755C150.615 44.7692 151.672 44.1608 152.82 43.7898C154.973 43.0265 157.258 42.7083 159.537 42.8544C161.817 43.0005 164.042 43.6079 166.08 44.6398C166.22 44.7098 166.35 44.8098 166.61 44.9698Z" fill="#DE3840"/>
<path d="M96.0497 38.84V14.05C94.7751 13.9059 93.4908 13.8658 92.2097 13.93C90.9797 13.93 89.7497 13.93 88.4497 13.93V9H109.45V13.92H101.81C101.72 16.15 101.81 18.21 101.81 20.28C101.81 22.35 101.81 24.36 101.81 26.39V38.84H96.0497Z" fill="#676867"/>
<path d="M223.45 17.2199C223.45 19.4318 222.571 21.5531 221.007 23.1172C219.443 24.6812 217.322 25.5599 215.11 25.5599C212.898 25.5599 210.777 24.6812 209.213 23.1172C207.649 21.5531 206.77 19.4318 206.77 17.2199C206.77 15.008 207.649 12.8867 209.213 11.3226C210.777 9.75856 212.898 8.87988 215.11 8.87988C217.322 8.87988 219.443 9.75856 221.007 11.3226C222.571 12.8867 223.45 15.008 223.45 17.2199Z" fill="#676867"/>
<path d="M240.55 25.65C238.307 25.6001 236.175 24.6623 234.623 23.0425C233.07 21.4227 232.224 19.2531 232.27 17.01C232.284 15.9178 232.514 14.8392 232.945 13.8358C233.377 12.8324 234.002 11.9239 234.785 11.1623C235.568 10.4007 236.493 9.80097 237.508 9.39733C238.523 8.99369 239.608 8.79409 240.7 8.80996C241.807 8.79572 242.906 9.00652 243.93 9.42958C244.953 9.85264 245.88 10.4792 246.654 11.2711C247.429 12.0631 248.034 13.0041 248.434 14.0369C248.833 15.0698 249.019 16.1731 248.98 17.28C248.983 18.3849 248.766 19.4795 248.342 20.5001C247.919 21.5207 247.297 22.4472 246.513 23.2257C245.729 24.0043 244.798 24.6195 243.774 25.0356C242.751 25.4517 241.655 25.6605 240.55 25.65Z" fill="#676867"/>
<path d="M274.422 16.9996C272.141 16.9493 269.973 16.0027 268.395 14.3676C266.816 12.7325 265.955 10.5424 266.002 8.27818C266.016 7.17572 266.25 6.08692 266.689 5.07407C267.128 4.06123 267.763 3.14419 268.559 2.37543C269.356 1.60666 270.297 1.00124 271.329 0.593791C272.361 0.186346 273.464 -0.0151313 274.575 0.000885176C275.701 -0.0134881 276.818 0.199299 277.859 0.626347C278.9 1.0534 279.843 1.68581 280.63 2.48525C281.417 3.2847 282.033 4.23452 282.439 5.27713C282.846 6.31975 283.035 7.43345 282.995 8.55072C282.997 9.66612 282.777 10.771 282.347 11.8012C281.916 12.8315 281.284 13.7667 280.486 14.5525C279.689 15.3384 278.742 15.9594 277.701 16.3794C276.66 16.7995 275.546 17.0103 274.422 16.9996Z" fill="#DE3840"/>
<path d="M265.97 73.44C264.862 73.4193 263.769 73.1789 262.755 72.7327C261.741 72.2865 260.825 71.6433 260.062 70.8405C259.298 70.0377 258.701 69.0912 258.306 68.056C257.911 67.0208 257.725 65.9175 257.76 64.81C257.8 62.5901 258.72 60.477 260.318 58.9354C261.915 57.3939 264.06 56.5502 266.28 56.59C268.5 56.6298 270.613 57.5497 272.155 59.1475C273.696 60.7454 274.54 62.8901 274.5 65.11C274.503 66.2217 274.283 67.3227 273.853 68.3479C273.423 69.3731 272.791 70.3015 271.996 71.0782C271.201 71.8549 270.257 72.4642 269.222 72.8699C268.187 73.2755 267.081 73.4694 265.97 73.44Z" fill="#676867"/>
<path d="M257.79 41.1499C257.754 40.0444 257.944 38.9432 258.348 37.9134C258.752 36.8836 259.361 35.9467 260.138 35.1599C260.916 34.3731 261.845 33.7528 262.87 33.3368C263.895 32.9207 264.994 32.7177 266.1 32.7399C267.767 32.7201 269.403 33.1964 270.799 34.1084C272.195 35.0204 273.289 36.3268 273.941 37.8617C274.592 39.3965 274.773 41.0906 274.46 42.7285C274.147 44.3664 273.354 45.8743 272.182 47.0604C271.01 48.2466 269.512 49.0576 267.878 49.3903C266.244 49.723 264.548 49.5624 263.005 48.9289C261.462 48.2954 260.143 47.2176 259.214 45.8325C258.286 44.4474 257.79 42.8175 257.79 41.1499Z" fill="#676867"/>
<path d="M223.45 41.23C223.42 42.8723 222.906 44.4694 221.972 45.8208C221.039 47.1722 219.727 48.2178 218.201 48.8264C216.675 49.435 215.004 49.5795 213.396 49.2418C211.789 48.9041 210.317 48.0991 209.165 46.928C208.013 45.7569 207.233 44.2717 206.922 42.6588C206.611 41.0458 206.783 39.377 207.417 37.8616C208.051 36.3462 209.118 35.0518 210.485 34.1406C211.852 33.2295 213.457 32.7422 215.1 32.74C216.216 32.7101 217.327 32.9104 218.363 33.3283C219.399 33.7462 220.338 34.3729 221.121 35.1693C221.904 35.9656 222.515 36.9147 222.916 37.9574C223.316 39 223.498 40.114 223.45 41.23Z" fill="#676867"/>
<path d="M232.31 41.16C232.316 39.5101 232.811 37.899 233.733 36.5306C234.655 35.1622 235.962 34.098 237.488 33.4725C239.015 32.8471 240.693 32.6886 242.31 33.017C243.927 33.3454 245.41 34.1461 246.572 35.3176C247.734 36.4892 248.522 37.979 248.837 39.5986C249.151 41.2182 248.979 42.8948 248.341 44.4163C247.702 45.9377 246.627 47.2357 245.251 48.146C243.875 49.0563 242.26 49.5379 240.61 49.53C239.509 49.5493 238.415 49.3454 237.395 48.9307C236.374 48.516 235.448 47.899 234.673 47.117C233.897 46.3349 233.288 45.4039 232.882 44.3802C232.476 43.3564 232.281 42.261 232.31 41.16Z" fill="#676867"/>
<path d="M223.45 65.1398C223.422 66.7935 222.903 68.4015 221.96 69.76C221.016 71.1184 219.691 72.1662 218.151 72.7704C216.612 73.3745 214.927 73.5079 213.312 73.1535C211.696 72.7992 210.223 71.9731 209.077 70.78C207.932 69.5868 207.167 68.0805 206.879 66.4519C206.591 64.8233 206.793 63.1458 207.459 61.6322C208.126 60.1186 209.227 58.837 210.623 57.95C212.019 57.063 213.646 56.6105 215.3 56.6498C217.503 56.7049 219.595 57.6278 221.122 59.2178C222.648 60.8078 223.485 62.9361 223.45 65.1398Z" fill="#676867"/>
<path d="M232.31 65.1098C232.316 63.462 232.81 61.8529 233.729 60.4856C234.649 59.1183 235.953 58.054 237.477 57.427C239.001 56.8001 240.676 56.6386 242.292 56.963C243.907 57.2874 245.39 58.083 246.554 59.2496C247.718 60.4162 248.51 61.9013 248.831 63.5176C249.151 65.1339 248.986 66.809 248.355 68.3314C247.725 69.8537 246.657 71.1552 245.288 72.0715C243.918 72.9878 242.308 73.4778 240.66 73.4798C239.559 73.4878 238.468 73.2766 237.45 72.8586C236.432 72.4406 235.508 71.824 234.731 71.0449C233.953 70.2658 233.339 69.3398 232.923 68.3208C232.508 67.3018 232.299 66.2102 232.31 65.1098Z" fill="#676867"/>
<path d="M138.69 43.4399V73.1199H133.15C132.92 72.2399 132.87 44.9299 133.15 43.4999C133.333 43.4892 133.517 43.4892 133.7 43.4999L138.69 43.4399Z" fill="#DE3840"/>
</svg>
